<?xml version="1.0" encoding="UTF-8"?>
<svg xmlns="http://www.w3.org/2000/svg" viewBox="0 0 2237 2237">
  <defs>
    <style>
      .cls-1 {
        fill: #ec1c24;
      }

      .cls-1, .cls-2 {
        fill-rule: evenodd;
      }

      .cls-2, .cls-3 {
        fill: #fff;
      }

      .cls-3 {
        opacity: 0;
      }

      .cls-4 {
        fill: #1f3e80;
      }
    </style>
  </defs>
  <g id="Bg">
    <rect class="cls-3" width="2237" height="2237"/>
  </g>
  <g id="Layer_1" data-name="Layer 1">
    <circle class="cls-4" cx="1125.32" cy="1118.49" r="737.64" transform="translate(-461.3 1123.32) rotate(-45)"/>
    <path class="cls-1" d="m284.32,1333.76c24.3-15.73,77.15-45.43,132.52-73.11,55.37-27.69,113.26-53.36,179.44-80.04,66.19-26.68,140.69-54.35,202.6-75.75,61.91-21.4,111.24-36.5,168.87-54.36,57.64-17.87,123.57-38.51,215.68-73.74,92.12-35.23,210.39-85.07,295.46-125.33,85.06-40.27,136.92-70.97,183.22-100.16,46.31-29.2,87.08-56.89,126.84-87.84,39.77-30.96,78.53-65.18,109.73-95.89,31.21-30.7,54.87-57.89,64.91-69.42,10.03-11.53,9.5-9.18,7.75-.88-1.76,8.3-4.77,22.57-16.06,46.69-11.29,24.12-33.95,59.86-56.6,93.32-22.65,33.48-45.3,64.68-71.73,95.64-26.42,30.95-56.62,61.66-88.59,90.86-31.96,29.2-65.68,56.87-92.12,78.52-26.42,21.65-45.55,37.25-76.25,59.39-30.7,22.15-72.99,50.84-119.55,82.55-46.56,31.71-97.39,66.44-148.48,101.43-51.09,34.98-102.44,70.21-128.1,87.82q-25.67,17.62-57.64,38.51c-31.96,20.89-95.88,62.67-127.85,83.56q-31.96,20.89-44.54,29.95c-12.59,9.06-37.75,27.18-63.93,46.05-26.18,18.88-53.35,38.51-66.94,48.32q-13.59,9.82-28.44,21.14c-14.85,11.33-44.54,33.98-89.34,71.23-44.8,37.25-104.69,89.09-146.47,124.83-41.78,35.74-62.8,59.9-74.88,66.44-12.08,6.55-12.58,0-9.13-6.66,3.46-6.66,8.22-17.98,35.02-42.83,26.79-24.85,72.98-67.76,101.73-94.38,28.75-26.61,40.08-36.93,45.74-42.09q5.66-5.16,14.91-13.15c9.25-7.99,27.75-23.98,37-31.96q9.25-7.99,21.33-18.44c12.08-10.44,36.24-31.33,48.32-41.78q12.08-10.44,29.13-22.27c17.05-11.82,51.15-35.48,68.2-47.32q17.05-11.82,34.92-23.78c17.87-11.95,53.61-35.86,99.22-66.19,45.62-30.33,101.11-67.08,128.85-85.45q27.75-18.37,62.23-40.77c34.48-22.4,103.43-67.2,137.91-89.59q34.48-22.4,53.11-36.49c18.62-14.1,55.87-42.28,74.5-56.37q18.62-14.1,34.22-26.18c15.6-12.08,46.82-36.24,62.42-48.32q15.6-12.09,25.67-20.89c10.07-8.81,30.2-26.43,26.49-26.12-3.71.32-31.27,18.56-51.65,31.21-20.38,12.65-33.59,19.69-69.33,36.18-35.74,16.48-94,42.41-138.8,61.17-44.8,18.75-76.13,30.32-121.25,44.73-45.11,14.41-104,31.65-142.01,42.35-38,10.7-55.12,14.84-89.1,23.34-33.98,8.49-84.81,21.33-122.12,30.7-37.31,9.37-61.1,15.29-86.33,21.71-25.23,6.42-51.91,13.34-79.22,20.45-27.31,7.11-55.24,14.41-86.58,23.53-31.33,9.13-66.06,20.08-93.5,29.14-27.43,9.06-47.56,16.23-64.81,22.71-17.24,6.49-31.58,12.28-44.8,17.94s-25.29,11.2-39.57,17.93c-14.28,6.73-30.77,14.66-44.23,21.45-13.46,6.8-23.91,12.46-32.15,17.05-7.42,4.14-25.55,12.16-33.9,8.18-1.99-.95-6.24-2.71,18.06-18.44Z"/>
    <path class="cls-2" d="m1282.98,1555.11c39.58,18.52,76.32,28.98,108.29,30.31,29.69,1.24,55.17-5.46,74.76-20.98,47.43-37.57,53.67-120.51,25.42-224.26-28.98-106.55-94.46-233.97-189.48-356.96l-10.21-13.08c-93.78-118.41-197.67-209.57-290.5-261.42-90.23-50.42-169.03-63.41-215.79-27.28l-.9.71c-47.4,37.57-53.62,120.5-25.39,224.2,15.57,57.24,41.67,120.5,77.22,185.86l-20,6.7c-35.46-65.68-61.58-129.33-77.31-187.09-30.51-111.88-22.03-202.73,32.63-246.02l.98-.79c54.06-41.76,141.04-29.02,238.68,25.53,95.05,53.1,201.18,146.14,296.68,266.73l10.37,13.24c96.69,125.14,163.41,255.17,193.11,364.22,30.52,111.88,22.03,202.74-32.63,246.04-44.48,35.21-152.82,4.73-197.27-18.7-.65-2.7-.16-5.01,1.34-6.94h0Zm-411.65-402.98l-21.16,5.3c24.24,39.49,51.66,79.29,82.04,118.6l13.31,17.38c9.23,12.09,19.26,24.19,29.05,36.3l17.19-11.45c-9.18-11.06-18.77-23.19-29.69-37.48l-13.4-17.47c-28.5-36.88-54.34-74.18-77.34-111.18h0Zm139.78,188.54l-18.48,12.08c2.09,2.79,4.13,5.57,6.11,8.36,4.8,6.77,21.62,27.91,26.72,34.63,5.1,6.72,7.43,10.05,10.17,14.14,2.73,4.1,5.86,9,9.19,13.69,3.32,4.68,6.86,9.17,10.59,13.65,3.74,4.49,7.68,8.96,12.23,13.93,4.55,4.97,9.72,10.4,14.68,14.88,4.96,4.47,9.71,8.03,13.79,10.67,4.08,2.65,7.48,4.41,11.82,6.18,4.35,1.78,9.65,3.53,14.19,4.01,4.55.47,8.36-.35,11.35-1.91,2.99-1.56,5.17-3.87,6.45-6.86,1.29-2.99,1.7-6.66,1.37-10.6-.34-3.94-1.44-8.15-4.35-12.15-2.92-4-7.68-7.82-14.2-12.85-6.52-5.02-14.81-11.27-22.08-17.11-7.26-5.84-13.52-11.28-20.58-17.19-7.07-5.91-14.94-12.31-25.95-23.1-16.66-16.34-30.09-30.11-43.01-44.45Z"/>
    <path class="cls-2" d="m848.72,1272.27c0,3.29-2.71,6-6.01,6s-6.01-2.71-6.01-6,2.71-6,6.01-6,6.01,2.71,6.01,6Z"/>
    <path class="cls-2" d="m1580.88,1318.44c0,3.3-2.71,6.01-6,6.01s-6.01-2.71-6.01-6.01,2.71-6,6.01-6,6,2.71,6,6Z"/>
    <path class="cls-2" d="m1139.39,513.09c0,2.24-1.85,4.09-4.1,4.09s-4.1-1.85-4.1-4.09,1.85-4.1,4.1-4.1,4.1,1.85,4.1,4.1Z"/>
    <path class="cls-2" d="m1182.9,604.05c0,4.06-3.34,7.39-7.4,7.39s-7.39-3.33-7.39-7.39,3.34-7.38,7.39-7.38,7.4,3.34,7.4,7.38Z"/>
    <path class="cls-2" d="m1296.23,752.75c0,6.89-5.67,12.56-12.56,12.56s-12.57-5.67-12.57-12.56,5.67-12.56,12.57-12.56,12.56,5.67,12.56,12.56Z"/>
    <path class="cls-2" d="m1117.99,655.31c0,3.69-3.04,6.73-6.73,6.73s-6.74-3.04-6.74-6.73,3.05-6.72,6.74-6.72,6.73,3.03,6.73,6.72Z"/>
    <path class="cls-2" d="m1182.7,689.48c0,3.69-3.04,6.73-6.73,6.73s-6.73-3.04-6.73-6.73,3.03-6.73,6.73-6.73,6.73,3.04,6.73,6.73Z"/>
    <path class="cls-2" d="m1098.75,593.9c0,4.54-3.74,8.28-8.29,8.28s-8.29-3.74-8.29-8.28,3.74-8.28,8.29-8.28,8.29,3.73,8.29,8.28Z"/>
    <path class="cls-2" d="m1000.59,653.47c0,3.69-3.04,6.72-6.74,6.72s-6.73-3.04-6.73-6.72,3.04-6.73,6.73-6.73,6.74,3.04,6.74,6.73Z"/>
    <path class="cls-2" d="m1017.42,665.47c0,3.29-2.71,6.01-6,6.01s-6.01-2.71-6.01-6.01,2.71-6,6.01-6,6,2.71,6,6Z"/>
    <path class="cls-2" d="m1036.53,677.48c0,4.14-3.41,7.54-7.54,7.54s-7.54-3.4-7.54-7.54,3.4-7.54,7.54-7.54,7.54,3.4,7.54,7.54Z"/>
    <path class="cls-2" d="m1008.91,700.56c0,3.69-3.04,6.72-6.74,6.72s-6.73-3.03-6.73-6.72,3.04-6.72,6.73-6.72,6.74,3.04,6.74,6.72Z"/>
    <path class="cls-2" d="m869.31,798.46c0,3.69-3.04,6.72-6.73,6.72s-6.74-3.03-6.74-6.72,3.04-6.73,6.74-6.73,6.73,3.03,6.73,6.73Z"/>
    <path class="cls-2" d="m896.92,829.86c0,4.64-3.81,8.45-8.45,8.45s-8.46-3.81-8.46-8.45,3.82-8.45,8.46-8.45,8.45,3.82,8.45,8.45Z"/>
    <path class="cls-2" d="m811.73,1381.04c0,4.99-4.1,9.09-9.09,9.09s-9.09-4.1-9.09-9.09,4.11-9.08,9.09-9.08,9.09,4.1,9.09,9.08Z"/>
    <path class="cls-2" d="m731.18,1452.63c0,3.64-3.01,6.65-6.66,6.65s-6.67-3.01-6.67-6.65,3.01-6.66,6.67-6.66,6.66,3.01,6.66,6.66Z"/>
    <path class="cls-2" d="m635.31,1481.71c0,4.05-3.34,7.39-7.39,7.39s-7.4-3.34-7.4-7.39,3.34-7.39,7.4-7.39,7.39,3.34,7.39,7.39Z"/>
    <path class="cls-2" d="m615.9,1417.06c0,4.05-3.34,7.38-7.39,7.38s-7.4-3.33-7.4-7.38,3.34-7.39,7.4-7.39,7.39,3.33,7.39,7.39Z"/>
    <path class="cls-2" d="m605.46,1458.16c0,3.65-3,6.66-6.66,6.66s-6.66-3-6.66-6.66,3.01-6.66,6.66-6.66,6.66,3.01,6.66,6.66Z"/>
    <path class="cls-2" d="m534.28,1423.99c0,3.65-3.01,6.65-6.66,6.65s-6.66-3-6.66-6.65,3.01-6.66,6.66-6.66,6.66,3.01,6.66,6.66Z"/>
    <path class="cls-2" d="m805.06,1570.57c0,3.3-2.71,6.01-6,6.01s-6.01-2.71-6.01-6.01,2.71-6,6.01-6,6,2.71,6,6Z"/>
    <path class="cls-2" d="m879.94,1515.62c0,4.05-3.34,7.39-7.4,7.39s-7.4-3.34-7.4-7.39,3.34-7.38,7.4-7.38,7.4,3.33,7.4,7.38Z"/>
    <path class="cls-2" d="m888.26,1586.27c0,3.29-2.71,6.01-6,6.01s-6.01-2.72-6.01-6.01,2.71-6,6.01-6,6,2.71,6,6Z"/>
    <path class="cls-2" d="m1196.1,1518.85c0,3.29-2.71,6.01-6.02,6.01s-6-2.71-6-6.01,2.71-6,6-6,6.02,2.71,6.02,6Z"/>
    <path class="cls-2" d="m1052.81,1569.65c0,3.3-2.71,6.01-6.01,6.01s-6.01-2.71-6.01-6.01,2.71-6,6.01-6,6.01,2.71,6.01,6Z"/>
    <path class="cls-2" d="m1438.31,1642.61c0,3.29-2.71,6.01-6,6.01s-6.01-2.72-6.01-6.01,2.71-6,6.01-6,6,2.71,6,6Z"/>
    <path class="cls-2" d="m1497.71,1360.63c0,4.05-3.33,7.39-7.39,7.39s-7.4-3.34-7.4-7.39,3.34-7.39,7.4-7.39,7.39,3.34,7.39,7.39Z"/>
    <path class="cls-2" d="m1410.58,1398.79c0,3.3-2.71,6-6.01,6s-6.01-2.71-6.01-6,2.71-6,6.01-6,6.01,2.71,6.01,6Z"/>
    <path class="cls-2" d="m1468.81,1410.34c0,4.05-3.33,7.38-7.39,7.38s-7.4-3.33-7.4-7.38,3.34-7.39,7.4-7.39,7.39,3.34,7.39,7.39Z"/>
    <path class="cls-2" d="m1411.3,1481.91c0,3.69-3.03,6.73-6.73,6.73s-6.74-3.04-6.74-6.73,3.04-6.72,6.74-6.72,6.73,3.03,6.73,6.72Z"/>
    <path class="cls-2" d="m1577.75,1354.92c0,4.99-4.11,9.09-9.09,9.09s-9.09-4.1-9.09-9.09,4.11-9.08,9.09-9.08,9.09,4.09,9.09,9.08Z"/>
    <path class="cls-2" d="m1679.59,1398.33c0,4.05-3.33,7.39-7.38,7.39s-7.4-3.34-7.4-7.39,3.33-7.38,7.4-7.38,7.38,3.33,7.38,7.38Z"/>
    <path class="cls-2" d="m1574.2,1475.45c0,3.3-2.71,6.01-6.01,6.01s-6.01-2.71-6.01-6.01,2.71-6,6.01-6,6.01,2.71,6.01,6Z"/>
    <path class="cls-2" d="m1640.76,1412.65c0,3.29-2.71,6-6,6s-6.01-2.71-6.01-6,2.71-6,6.01-6,6,2.71,6,6Z"/>
    <path class="cls-2" d="m1628.75,1509.62c0,3.3-2.71,6.01-6,6.01s-6.01-2.71-6.01-6.01,2.71-6,6.01-6,6,2.71,6,6Z"/>
    <path class="cls-2" d="m947.4,810.93c0,5.06-4.17,9.23-9.25,9.23s-9.24-4.17-9.24-9.23,4.17-9.23,9.24-9.23,9.25,4.17,9.25,9.23Z"/>
    <polygon class="cls-2" points="938.15 782.76 935.38 808.16 910.19 810.93 935.61 813.7 938.38 840.02 941.16 813.7 966.12 810.46 940.93 808.16 938.15 782.76"/>
    <path class="cls-2" d="m1282.05,557.86l-2.06,18.86c-4.35.84-7.8,4.29-8.64,8.63l-18.64,2.05,18.64,2.04c.84,4.42,4.41,7.93,8.86,8.69l2.09,19.79,2.09-19.89c4.24-.94,7.58-4.39,8.37-8.7l18.63-2.41-18.67-1.71c-.89-4.27-4.31-7.65-8.61-8.49l-2.06-18.86Z"/>
    <g>
      <path class="cls-2" d="m493.16,969.87c126.29.97,114.46-.26,115.94,1.22,2.22,0,101.32,170.68,101.32,172.15,0,.74-.74-60.65-.74-137.42,0-8.86-24.41-34.72-23.67-34.72,36.23,0,83.58.74,83.58.74-17.75,20.69-21.3,18.98-21.45,31.77-.49,41.13-.97,117.11,0,202.44.14,12.79,9.61,17.73,25.14,39.9h-116.11c-37.72-62.8-106.84-180.61-106.5-180.28.53.54-1.48,73.89.74,132.99.73,19.52,9.61,25.86,25.89,43.59,0,0,18.73-.49-90.97.73,33.28-17.73,28.85-39.9,28.84-40.63-1.2-81.64-.24-151.47-.24-196.53,0-7.38-.5-6.65-23.42-34.72l1.65-1.22Z"/>
      <path class="cls-2" d="m889.74,1095.95c10.64-36.99,19.74-70.06,24.06-91.61.74-3.69-8.14-16.99-22.19-30.29l-.99-2.07c67.76.22,138.55.59,138.55.59,18.49,45.07,60.64,171.41,92.44,248.99,8.41,20.51,22.93,24.38,22.93,24.38-57.69-.74-164.74-.24-164.18-.74,28.84-25.85,25.14-25.85,12.57-63.54h-90.23c-18.49,42.85,5.77,62.96,8.88,62.8-20.54,1.06-90.23,0-90.23,0,37.72-26.6,35.5-34.72,35.5-34.72,10.36-36.86,22.37-77.23,32.89-113.78h37c-7.95,25.5-15.9,50.98-15.9,50.98h71.74l-39.94-101.95s-7.95,25.48-15.9,50.97h-37Z"/>
      <path class="cls-2" d="m1495.06,1099.64c10.64-36.99,19.75-70.06,24.06-91.61.74-3.7-8.14-16.99-22.19-30.29l-.98-2.07c67.76.23,138.54.59,138.54.59,18.49,45.07,60.65,171.41,92.45,248.99,8.41,20.51,22.93,24.38,22.93,24.38-57.69-.74-164.74-.24-164.19-.74,28.85-25.85,25.15-25.85,12.57-63.54h-90.22c-18.49,42.85,5.76,62.96,8.87,62.8-20.54,1.05-90.23,0-90.23,0,37.72-26.6,35.51-34.73,35.51-34.73,10.36-36.86,22.37-77.23,32.88-113.78h37.01c-7.96,25.5-15.9,50.98-15.9,50.98h71.73l-39.94-101.95s-7.95,25.48-15.9,50.98h-37.01Z"/>
      <path class="cls-2" d="m1393.03,1039.07c-1.48-52.46,0-69.45,0-69.45-22.93,18.48-11.35,16.13-68.78,6.65-165.66-27.34-178.24,127.08-88.01,161.81,75.59,29.08,102.35,34.78,90.97,62.06-3.7,8.87-72.48,41.38-143.48-24.38l1.49,91.61c8.87-9.14,33.28-25.86,33.28-25.86.73,0,76.93,33.58,145.69-1.48,105.75-53.93,52.96-141.22-59.9-175.84-93.93-28.82-5.18-96.05,88-24.39l.74-.73Z"/>
    </g>
    <path class="cls-2" d="m828.73,1631.61l-2.06,18.87c-4.34.84-7.79,4.29-8.64,8.63l-18.64,2.05,18.64,2.04c.85,4.42,4.41,7.93,8.86,8.69l2.09,19.79,2.09-19.89c4.24-.94,7.58-4.39,8.37-8.7l18.63-2.41-18.67-1.71c-.9-4.27-4.32-7.65-8.61-8.49l-2.06-18.87Z"/>
    <path class="cls-2" d="m1582.18,1483.02l-2.06,18.86c-4.34.84-7.8,4.29-8.64,8.63l-18.64,2.05,18.64,2.04c.85,4.42,4.41,7.93,8.86,8.69l2.09,19.79,2.09-19.89c4.24-.94,7.58-4.39,8.37-8.7l18.63-2.41-18.67-1.71c-.89-4.27-4.31-7.65-8.61-8.49l-2.06-18.86Z"/>
    <path class="cls-2" d="m1648.01,1320.2l-2.06,18.87c-4.35.84-7.8,4.3-8.64,8.63l-18.64,2.05,18.64,2.03c.85,4.43,4.41,7.93,8.85,8.7l2.09,19.79,2.09-19.89c4.25-.94,7.59-4.39,8.37-8.7l18.63-2.42-18.67-1.71c-.89-4.27-4.31-7.65-8.61-8.49l-2.06-18.87Z"/>
  </g>
</svg>